# xmcd
#
# Track frame offsets:
# 150
# 15885
# 33515
# 53830
# 69412
# 82850
# 102770
# 122555
# 145320
# 167747
#
# Disc length: 2472 seconds
#
# Revision: 0
# Processed by: cddbd v1.4PL0 Copyright (c) Steve Scherf et al.
# Submitted via: Audion 3.0.2 (http://www.panic.com/audion/)
#
DISCID=7309a60a
DTITLE=Christian Castro - Serie Millennium 21
DYEAR=1900
DGENRE=
TTITLE0=El Deseo De Oir Tu Voz
TTITLE1=Con Tu Amor
TTITLE2=Mujer Especial
TTITLE3=Azul Gris
TTITLE4=Senora Por Favor
TTITLE5=Solo Tu
TTITLE6=Puerto Rico
TTITLE7=Nunca Voy A Olvidarte
TTITLE8=Amor
TTITLE9=No Podras
EXTD=
EXTT0=
EXTT1=
EXTT2=
EXTT3=
EXTT4=
EXTT5=
EXTT6=
EXTT7=
EXTT8=
EXTT9=
PLAYORDER=
